<?xml version="1.0" encoding="UTF-8"?><!DOCTYPE svg PUBLIC "-//W3C//DTD SVG 1.1//EN" "http://www.w3.org/Graphics/SVG/1.1/DTD/svg11.dtd"><svg xmlns="http://www.w3.org/2000/svg" xmlns:xlink="http://www.w3.org/1999/xlink" version="1.1" width="20" height="20" viewBox="0 0 20 20"><path d="M15.449,14.515l-1.84-1.136c0.806-1.218,1.246-2.811,1.246-4.379c0-2.991-1.952-5-4.857-5C7.093,4,5.141,6.009,5.141,9
	c0,1.569,0.44,3.162,1.246,4.379l-1.84,1.136c-0.946,0.495-1.549,1.49-1.549,2.581C2.998,18.697,4.282,20,5.859,20h8.278
	c1.578,0,2.861-1.303,2.861-2.904C16.998,16.006,16.396,15.011,15.449,14.515z M7.141,9c0-2.071,1.279-3,2.857-3
	c1.578,0,2.857,0.929,2.857,3c0,0.906-0.205,1.881-0.585,2.69c-0.107,0.228-0.228,0.442-0.362,0.638
	c-0.07,0.103-0.144,0.201-0.221,0.294c-0.375,0.447-0.833,0.758-1.362,0.85C10.219,13.491,10.11,13.5,9.998,13.5
	c-0.785,0-1.431-0.47-1.91-1.171C7.478,11.434,7.141,10.161,7.141,9z M14.137,18H5.859c-0.475,0-0.861-0.405-0.861-0.904
	c0-0.362,0.205-0.688,0.522-0.831l2.304-1.423C8.454,15.255,9.18,15.5,9.998,15.5c0.818,0,1.545-0.245,2.174-0.658l2.304,1.423
	c0.317,0.142,0.522,0.469,0.522,0.831C14.998,17.595,14.613,18,14.137,18z M20,11.247c0-1.013-0.548-1.945-1.41-2.422l-0.495-0.318
	c0.769-1.092,1.19-2.561,1.19-4.006C19.286,1.85,17.523,0,15,0c-2.129,0-3.702,1.326-4.146,3.328
	c0.707,0.094,1.35,0.305,1.926,0.615c0.06-0.383,0.157-0.728,0.325-0.992c0.164-0.259,0.374-0.463,0.617-0.615
	C14.087,2.109,14.527,2,15,2c1.262,0,2.286,0.774,2.286,2.5c0,1.038-0.315,2.176-0.872,2.924c-0.247,0.332-0.545,0.578-0.883,0.712
	C15.566,8.419,15.606,8.7,15.606,9c0,0.397-0.032,0.794-0.083,1.188c0.359-0.056,0.704-0.147,1.018-0.303l1.042,0.67
	C17.836,10.673,18,10.945,18,11.247C18,11.663,17.692,12,17.311,12h-2.215c-0.135,0.391-0.286,0.771-0.47,1.126l1.195,0.738
	c0.076,0.041,0.145,0.091,0.218,0.136h1.272C18.794,14,20,12.765,20,11.247z M5.37,13.126C5.187,12.771,5.035,12.391,4.9,12H2.689
	C2.308,12,2,11.663,2,11.247c0-0.301,0.164-0.574,0.417-0.692l1.042-0.67c0.313,0.155,0.657,0.246,1.015,0.303
	C4.423,9.794,4.391,9.397,4.391,9c0-0.3,0.039-0.582,0.075-0.865C4.13,8,3.833,7.755,3.587,7.424C3.029,6.676,2.714,5.538,2.714,4.5
	c0-0.647,0.144-1.161,0.39-1.549c0.164-0.259,0.374-0.463,0.617-0.615C4.087,2.109,4.527,2,5,2c1.113,0,2.038,0.604,2.242,1.93
	C7.813,3.627,8.448,3.42,9.146,3.328C8.701,1.325,7.128,0,5,0C2.477,0,0.714,1.85,0.714,4.5c0,1.446,0.422,2.914,1.19,4.006
	L1.41,8.825C0.548,9.302,0,10.234,0,11.247C0,12.765,1.206,14,2.689,14h1.268c0.073-0.046,0.141-0.095,0.218-0.136L5.37,13.126z"/></svg>