<?xml version="1.0" encoding="UTF-8"?><!DOCTYPE svg PUBLIC "-//W3C//DTD SVG 1.1//EN" "http://www.w3.org/Graphics/SVG/1.1/DTD/svg11.dtd"><svg xmlns="http://www.w3.org/2000/svg" xmlns:xlink="http://www.w3.org/1999/xlink" version="1.1" width="20" height="20" viewBox="0 0 20 20"><path d="M3.033,17C2.463,17,2,16.528,2,15.945c0-0.105,0.015-0.208,0.044-0.306c0.058-0.195,0.171-0.37,0.324-0.501
	c0.076-0.066,0.163-0.121,0.258-0.162l3.093-1.857C6.387,13.52,7.151,13.75,8,13.75s1.613-0.23,2.28-0.631l0.352,0.211
	c0.302-0.606,0.701-1.156,1.181-1.624l-0.006-0.004c1.045-1.391,1.622-3.311,1.622-5.203C13.429,3.21,11.247,1,8,1
	S2.571,3.21,2.571,6.5c0,1.891,0.577,3.812,1.622,5.203l-2.515,1.51C0.653,13.727,0,14.783,0,15.945C0,17.63,1.361,19,3.033,19
	h7.776c-0.352-0.608-0.599-1.282-0.719-2H3.033z M8,3c1.894,0,3.429,1.084,3.429,3.5c0,1.482-0.485,3.117-1.353,4.163
	C9.528,11.323,8.829,11.75,8,11.75c-0.268,0-0.522-0.044-0.763-0.126c-0.12-0.041-0.237-0.092-0.35-0.151
	c-0.226-0.119-0.437-0.272-0.633-0.453c-0.116-0.108-0.225-0.229-0.331-0.356c-0.072-0.086-0.143-0.174-0.209-0.268
	c-0.164-0.232-0.311-0.486-0.442-0.756C5.078,9.234,4.921,8.794,4.806,8.34C4.729,8.037,4.67,7.728,4.631,7.419
	C4.591,7.111,4.571,6.802,4.571,6.5C4.571,4.084,6.106,3,8,3z M15,12h2v3h3v2h-3v3h-2v-3h-3v-2h3V12"/></svg>