<?xml version="1.0" encoding="UTF-8"?><!DOCTYPE svg PUBLIC "-//W3C//DTD SVG 1.1//EN" "http://www.w3.org/Graphics/SVG/1.1/DTD/svg11.dtd"><svg xmlns="http://www.w3.org/2000/svg" xmlns:xlink="http://www.w3.org/1999/xlink" version="1.1" width="20" height="20" viewBox="0 0 20 20"><path d="M17.2,13.9L14,12c0.2-0.3,0.5-0.6,0.7-1C15.5,9.6,16,7.8,16,6c0-3.6-2.4-6-6-6S4,2.4,4,6c0,1.8,0.5,3.6,1.3,5.1
	c0.2,0.4,0.4,0.7,0.7,1l-3.2,1.9C1.7,14.4,1,15.6,1,16.8C1,18.6,2.4,20,4.2,20h11.6c1.8,0,3.2-1.4,3.2-3.2
	C19,15.6,18.3,14.4,17.2,13.9z M6,6c0-2.8,1.8-4,4-4s4,1.2,4,4c0,1.8-0.6,3.8-1.8,5c-0.6,0.6-1.3,1-2.2,1s-1.6-0.4-2.2-1
	C6.6,9.8,6,7.8,6,6z M15.8,18H4.2C3.5,18,3,17.5,3,16.8c0-0.5,0.3-0.9,0.7-1.1l3.9-2.3C8.4,13.8,9.2,14,10,14s1.6-0.2,2.3-0.6
	l3.9,2.3c0.4,0.2,0.7,0.6,0.7,1.1C17,17.5,16.5,18,15.8,18z"/></svg>