<?xml version="1.0" encoding="UTF-8"?><!DOCTYPE svg PUBLIC "-//W3C//DTD SVG 1.1//EN" "http://www.w3.org/Graphics/SVG/1.1/DTD/svg11.dtd"><svg xmlns="http://www.w3.org/2000/svg" xmlns:xlink="http://www.w3.org/1999/xlink" version="1.1" width="20" height="20" viewBox="0 0 20 20"><path d="M14.3,14.2l-2.5-1.5c1-1.4,1.6-3.3,1.6-5.2C13.4,4.2,11.2,2,8,2S2.6,4.2,2.6,7.5c0,1.9,0.6,3.8,1.6,5.2l-2.5,1.5
	c-1,0.5-1.7,1.6-1.7,2.7C0,18.6,1.4,20,3,20H13c1.7,0,3-1.4,3-3.1C16,15.8,15.3,14.7,14.3,14.2z M4.6,7.5C4.6,5.1,6.1,4,8,4
	s3.4,1.1,3.4,3.5c0,1.5-0.5,3.1-1.4,4.2c-0.5,0.7-1.2,1.1-2.1,1.1s-1.5-0.4-2.1-1.1C5.1,10.6,4.6,9,4.6,7.5z M13,18H3
	c-0.6,0-1-0.5-1-1.1c0-0.1,0-0.2,0-0.3c0.1-0.2,0.2-0.4,0.3-0.5C2.4,16.1,2.5,16,2.6,16l3.1-1.9c0.7,0.4,1.4,0.6,2.3,0.6
	s1.6-0.2,2.3-0.6l3.1,1.9c0.4,0.2,0.6,0.5,0.6,1C14,17.5,13.5,18,13,18z M16.9,11.1c0.3-1.2,0.5-2.4,0.5-3.6c0-0.4,0-3.1-1.9-5.5
	C14.7,1,13,0,12,0c-0.7,0-1.3,0.1-1.8,0.3c1.3,0.4,2.5,1.1,3.4,2c1,1.1,1.6,2.5,1.8,4.1c0,0.4,0.1,0.7,0.1,1.1
	c0,1.6-0.3,3.1-0.9,4.5l0.8,0.5c0.5,0.3,1,0.7,1.4,1.1c0.5,0.6,0.9,1.2,1.1,2c0.1,0.5,0.2,0.9,0.2,1.4c0,0.3,0,0.6-0.1,0.9
	c1-0.3,1.7-1.1,2-2.1c0.1-0.3,0.1-0.5,0.1-0.8C20,13.8,19.1,12,16.9,11.1z"/></svg>