<?xml version="1.0" encoding="UTF-8"?><!DOCTYPE svg PUBLIC "-//W3C//DTD SVG 1.1//EN" "http://www.w3.org/Graphics/SVG/1.1/DTD/svg11.dtd"><svg xmlns="http://www.w3.org/2000/svg" xmlns:xlink="http://www.w3.org/1999/xlink" version="1.1" width="20" height="20" viewBox="0 0 20 20"><path d="M19.638,14.575L12.64,1.578C12.117,0.605,11.105,0,10,0S7.883,0.605,7.359,1.578L0.362,14.575
	c-0.505,0.939-0.481,2.046,0.065,2.962C0.974,18.453,1.937,19,3.003,19h13.994c1.066,0,2.029-0.547,2.575-1.463
	C20.119,16.622,20.143,15.514,19.638,14.575z M16.995,16.998H3.001c-0.757,0-1.239-0.808-0.88-1.475L9.118,2.526
	C9.307,2.175,9.652,2,9.998,2s0.691,0.175,0.88,0.526l6.997,12.997C18.234,16.19,17.752,16.998,16.995,16.998z M10.5,11h-1L9,5h2
	L10.5,11z M10.999,14c0,0.552-0.448,1-1,1c-0.552,0-1-0.448-1-1s0.448-1,1-1C10.552,13,10.999,13.448,10.999,14z"/></svg>