<?xml version="1.0" encoding="UTF-8"?><!DOCTYPE svg PUBLIC "-//W3C//DTD SVG 1.1//EN" "http://www.w3.org/Graphics/SVG/1.1/DTD/svg11.dtd"><svg xmlns="http://www.w3.org/2000/svg" xmlns:xlink="http://www.w3.org/1999/xlink" version="1.1" width="20" height="20" viewBox="0 0 20 20"><path d="M10,13c0.8,0,1.5-0.3,2.1-0.9c0.6-0.6,0.9-1.3,0.9-2.1s-0.3-1.5-0.9-2.1C11.5,7.3,10.8,7,10,7S8.5,7.3,7.9,7.9
	C7.3,8.5,7,9.2,7,10s0.3,1.5,0.9,2.1C8.5,12.7,9.2,13,10,13 M10,0c2.8,0,5.1,1,7,2.9s3,4.3,3,7.1v1.4c0,1-0.4,1.9-1,2.6
	c-0.7,0.7-1.5,1-2.5,1c-1.2,0-2.2-0.5-2.9-1.5c-1,1-2.2,1.5-3.6,1.5c-1.4,0-2.6-0.5-3.5-1.5c-1-1-1.5-2.2-1.5-3.5
	c0-1.4,0.5-2.6,1.5-3.5C7.4,5.5,8.6,5,10,5c1.4,0,2.6,0.5,3.5,1.5c1,1,1.5,2.2,1.5,3.5v1.4c0,0.4,0.2,0.8,0.5,1.1
	c0.3,0.3,0.7,0.5,1,0.5c0.4,0,0.8-0.2,1.1-0.5c0.3-0.3,0.4-0.7,0.4-1.1V10c0-2.2-0.8-4.1-2.4-5.7S12.2,2,10,2S5.9,2.8,4.3,4.3
	S2,7.8,2,10s0.8,4.1,2.3,5.6S7.8,18,10,18h5v2h-5c-2.8,0-5.1-1-7.1-3S0,12.8,0,10s1-5.1,2.9-7.1S7.2,0,10,0z"/></svg>