<?xml version="1.0" encoding="UTF-8"?><!DOCTYPE svg PUBLIC "-//W3C//DTD SVG 1.1//EN" "http://www.w3.org/Graphics/SVG/1.1/DTD/svg11.dtd"><svg xmlns="http://www.w3.org/2000/svg" xmlns:xlink="http://www.w3.org/1999/xlink" version="1.1" width="20" height="20" viewBox="0 0 20 20"><path d="M5.9,5.9c1.8-1.8,4.3-2.6,6.6-2.4c-0.6,0.8-1.1,1.8-1.2,2.8C10,6.4,8.8,7,7.9,7.9S6.4,10,6.2,11.3c-1,0.2-2,0.6-2.8,1.2
	C3.2,10.1,4.1,7.7,5.9,5.9 M4.5,4.4c-3.5,3.5-4,8.9-1.4,12.8c0-1,0.4-2.1,1.2-2.9c1.1-1.1,2.6-1.4,4-1.1c-0.4-1.3-0.1-2.9,1.1-4
	c1.1-1.1,2.6-1.4,4-1.1c-0.4-1.3,0-2.9,1.1-4c0.8-0.8,1.8-1.2,2.8-1.2C13.3,0.5,8,0.9,4.5,4.4L4.5,4.4z M18.6,17.2l-1.4,1.4
	l-7.1-7.1l1.4-1.4L18.6,17.2z"/></svg>