<?xml version="1.0" encoding="UTF-8"?><!DOCTYPE svg PUBLIC "-//W3C//DTD SVG 1.1//EN" "http://www.w3.org/Graphics/SVG/1.1/DTD/svg11.dtd"><svg xmlns="http://www.w3.org/2000/svg" xmlns:xlink="http://www.w3.org/1999/xlink" version="1.1" width="20" height="20" viewBox="0 0 20 20"><path d="M1.1,1L0,2.1l3.6,3.6C3.2,6.6,3,7.5,3,8.5V14l-2,2v1h13.9l3,3l1.1-1.1L1.1,1z M5,15V8.5c0-0.4,0.1-0.9,0.2-1.2l7.7,7.7H5z
	 M9.5,4C12,4,14,6,14,8.5v3.4l2,2V8.5c0-3.1-2.1-5.6-5-6.3V1.5C11,0.7,10.3,0,9.5,0S8,0.7,8,1.5v0.7C7.1,2.4,6.2,2.8,5.5,3.4
	l1.4,1.4C7.7,4.3,8.5,4,9.5,4z M9.5,20c1.1,0,2-0.9,2-2h-4C7.5,19.1,8.4,20,9.5,20z"/></svg>