<?xml version="1.0" encoding="UTF-8"?><!DOCTYPE svg PUBLIC "-//W3C//DTD SVG 1.1//EN" "http://www.w3.org/Graphics/SVG/1.1/DTD/svg11.dtd"><svg xmlns="http://www.w3.org/2000/svg" xmlns:xlink="http://www.w3.org/1999/xlink" version="1.1" width="20" height="20" viewBox="0 0 20 20"><path d="M10,0c5.5,0,10,4.5,10,10s-4.5,10-10,10S0,15.5,0,10S4.5,0,10,0 M10,2c-4.4,0-8,3.6-8,8c0,1.9,0.6,3.6,1.7,4.9L14.9,3.7
	C13.6,2.6,11.9,2,10,2 M10,18c4.4,0,8-3.6,8-8c0-1.9-0.6-3.6-1.7-4.9L5.1,16.3C6.4,17.4,8.1,18,10,18z"/></svg>