<?xml version="1.0" encoding="UTF-8"?><!DOCTYPE svg PUBLIC "-//W3C//DTD SVG 1.1//EN" "http://www.w3.org/Graphics/SVG/1.1/DTD/svg11.dtd"><svg xmlns="http://www.w3.org/2000/svg" xmlns:xlink="http://www.w3.org/1999/xlink" version="1.1" width="20" height="20" viewBox="0 0 20 20"><path d="M7.8,18.9c1.8-0.7,1.4-2.6,0.5-3.9c-0.9-1.2-2.1-2.1-3.4-2.9C4,11.5,3.2,10.8,2.5,10C2.3,9.7,1.7,9.1,2.3,8.9
	c0.6-0.1,1.6,0.5,2.1,0.7C5.3,10,6.2,10.4,7.1,11l1-1.7c-1.6-1-3.6-1.9-5.4-2.2C1.6,6.9,0.5,7.1,0.1,8.3c-0.3,1,0.2,2,0.8,2.8
	c1.4,1.8,3.5,2.7,5.1,4.3c0.3,0.3,0.8,0.7,0.9,1.2C7.1,16.9,7.1,17,6.6,17c-1.2,0-2.8-1-3.8-1.6l-1,1.7C3.3,18,5.9,19.5,7.8,18.9
	 M18.8,3.2c0.2-0.2,0.2-0.6,0-0.8l-1.3-1.3C17.3,1,17,1,16.8,1.2l-1,1l2.1,2.1 M9,8.9V11h2.1l6.1-6.2l-2.1-2.1L9,8.9z"/></svg>