<?xml version="1.0" encoding="UTF-8"?><!DOCTYPE svg PUBLIC "-//W3C//DTD SVG 1.1//EN" "http://www.w3.org/Graphics/SVG/1.1/DTD/svg11.dtd"><svg xmlns="http://www.w3.org/2000/svg" xmlns:xlink="http://www.w3.org/1999/xlink" version="1.1" width="20" height="20" viewBox="0 0 20 20"><path d="M10,15.5c2.3,0,4.3-1.5,5.1-3.5H4.9C5.7,14,7.7,15.5,10,15.5 M6.5,9C7.3,9,8,8.3,8,7.5S7.3,6,6.5,6S5,6.7,5,7.5S5.7,9,6.5,9
	 M13.5,9C14.3,9,15,8.3,15,7.5S14.3,6,13.5,6C12.7,6,12,6.7,12,7.5S12.7,9,13.5,9 M10,18c-4.4,0-8-3.6-8-8s3.6-8,8-8s8,3.6,8,8
	S14.4,18,10,18 M10,0C4.5,0,0,4.5,0,10c0,5.5,4.5,10,10,10s10-4.5,10-10S15.5,0,10,0z"/></svg>