<?xml version="1.0" encoding="UTF-8"?><!DOCTYPE svg PUBLIC "-//W3C//DTD SVG 1.1//EN" "http://www.w3.org/Graphics/SVG/1.1/DTD/svg11.dtd"><svg xmlns="http://www.w3.org/2000/svg" xmlns:xlink="http://www.w3.org/1999/xlink" version="1.1" width="20" height="20" viewBox="0 0 20 20"><path d="M10,7c1.7,0,3,1.3,3,3s-1.3,3-3,3s-3-1.3-3-3S8.3,7,10,7 M10,2.5c5,0,8.3,3.1,10,7.5c-1.7,4.4-5,7.5-10,7.5S1.7,14.4,0,10
	C1.7,5.6,5,2.5,10,2.5 M2.2,10c1.6,3.4,4.1,5.5,7.8,5.5s6.2-2.1,7.8-5.5c-1.6-3.4-4.1-5.5-7.8-5.5S3.8,6.6,2.2,10z"/></svg>