<?xml version="1.0" encoding="UTF-8"?><!DOCTYPE svg PUBLIC "-//W3C//DTD SVG 1.1//EN" "http://www.w3.org/Graphics/SVG/1.1/DTD/svg11.dtd"><svg xmlns="http://www.w3.org/2000/svg" xmlns:xlink="http://www.w3.org/1999/xlink" version="1.1" width="20" height="20" viewBox="0 0 20 20"><path d="M12,0H4C2.9,0,2,0.9,2,2v16c0,1.1,0.9,2,2,2h12c1.1,0,2-0.9,2-2V6L12,0 M16,18H4V2h7v5h5V18 M13.2,8.8
	C12.7,8.3,12.1,8,10.8,8H7v9h1.6v-3.3h2.2c1.3,0,1.8-0.2,2.4-0.7c0.6-0.5,0.8-1.2,0.8-2.1C14,10,13.8,9.4,13.2,8.8 M11.9,12
	c-0.3,0.3-0.6,0.5-1.2,0.5H8.6V9.3h2c0.6,0,1,0.2,1.3,0.5c0.3,0.3,0.4,0.6,0.4,1.1S12.2,11.7,11.9,12z"/></svg>