<?xml version="1.0" encoding="UTF-8"?><!DOCTYPE svg PUBLIC "-//W3C//DTD SVG 1.1//EN" "http://www.w3.org/Graphics/SVG/1.1/DTD/svg11.dtd"><svg xmlns="http://www.w3.org/2000/svg" xmlns:xlink="http://www.w3.org/1999/xlink" version="1.1" width="20" height="20" viewBox="0 0 20 20"><path d="M12,0l6,6v12c0,1.1-0.9,2-2,2H4c-1.1,0-2-0.9-2-2V2c0-1.1,0.9-2,2-2H12 M16,18V7h-5V2H4v16H16 M8.9,10.3
	C8.7,9.5,8.1,7.1,9.6,7s0.5,3.1,0.5,3.1c0.4,1.5,2,2.6,2,2.6c0.5-0.2,3.3-0.5,2.9,1c-0.4,1.5-3.5,0.1-3.5,0.1
	c-1.9,0.1-3.4,0.7-3.4,0.7c-1.1,2.1-2.5,3-3,2.1c-0.7-1.1,2.1-2.5,2.1-2.5C8.7,11.7,8.9,10.4,8.9,10.3 M9.6,11.1
	c-0.4,1.3-1.2,2.7-1.2,2.7c0.9-0.3,2.7-0.7,2.7-0.7C9.9,12.1,9.6,11.2,9.6,11.1 M12.7,13.3c0,0,1.7,0.7,1.8,0.4
	C14.6,13.4,13.2,13.2,12.7,13.3 M7.1,14.8c-0.8,0.3-1.5,1.6-1.3,1.6C5.9,16.4,6.6,15.8,7.1,14.8 M9.6,9.3c0-0.1,0.4-1.7,0-1.7
	C9.3,7.5,9.6,9.2,9.6,9.3z"/></svg>