<?xml version="1.0" encoding="UTF-8"?><!DOCTYPE svg PUBLIC "-//W3C//DTD SVG 1.1//EN" "http://www.w3.org/Graphics/SVG/1.1/DTD/svg11.dtd"><svg xmlns="http://www.w3.org/2000/svg" xmlns:xlink="http://www.w3.org/1999/xlink" version="1.1" width="20" height="20" viewBox="0 0 20 20"><path d="M12,0H4C2.9,0,2,0.9,2,2v16c0,1.1,0.9,2,2,2h12c1.1,0,2-0.9,2-2V6L12,0 M16,18H4V2h7v5h5V18 M7.5,13.6l2.1,2.1L8.4,17
	L5,13.6l3.4-3.3l1.3,1.3L7.5,13.6 M15,13.6L11.6,17l-1.3-1.3l2.1-2.1l-2.1-2.1l1.3-1.3L15,13.6z"/></svg>