<?xml version="1.0" encoding="UTF-8"?><!DOCTYPE svg PUBLIC "-//W3C//DTD SVG 1.1//EN" "http://www.w3.org/Graphics/SVG/1.1/DTD/svg11.dtd"><svg xmlns="http://www.w3.org/2000/svg" xmlns:xlink="http://www.w3.org/1999/xlink" version="1.1" width="20" height="20" viewBox="0 0 20 20"><path d="M9.8,4c0.1,0.1,0.2,0.3,0.3,0.4c0.4,0.6,1.1,1.3,2.1,2.2c0.8,0.7,1.4,1.3,1.7,1.7
	c0.5,0.6,0.9,1.2,1.2,1.8c0.3,0.7,0.4,1.6,0.4,2.4c0,1-0.2,1.9-0.7,2.7c-0.5,0.9-1.2,1.5-2,2C11.9,17.8,11,18,10,18
	s-1.9-0.2-2.7-0.7c-0.9-0.5-1.5-1.2-2-2c-0.5-0.8-0.7-1.7-0.7-2.7c0-0.9,0.2-1.7,0.6-2.5c0,0,0-0.1,0.1-0.1v1.4c0,1,0.4,1.9,1,2.5
	c0.7,0.7,1.6,1,2.5,1s1.9-0.4,2.5-1c0.7-0.7,1-1.6,1-2.5c0-0.6-0.2-1.2-0.5-1.8c-0.1-0.3-0.3-0.7-0.7-1.3c-0.6-1-0.9-1.6-1.1-1.9
	c-0.2-0.7-0.3-1.3-0.3-2C9.8,4.2,9.8,4.1,9.8,4 M10,0c0,0-0.1,0-0.1,0C9.6,0,9.4,0.2,9.2,0.4C8.4,1.7,7.9,2.9,7.8,4.1
	C7.7,5.1,7.9,6,8.2,7c0.2,0.5,0.6,1.3,1.2,2.2c0.3,0.5,0.5,0.9,0.6,1.1c0.2,0.3,0.3,0.6,0.3,0.9c0,0.4-0.1,0.8-0.4,1.1
	c-0.3,0.3-0.7,0.4-1.1,0.4s-0.8-0.1-1.1-0.4c-0.3-0.3-0.4-0.7-0.4-1.1V7.1c0-0.4-0.2-0.6-0.5-0.8C6.5,6.2,6.4,6.2,6.2,6.2
	C6,6.2,5.9,6.2,5.7,6.3C4.7,7,3.9,7.9,3.4,9c-0.6,1.1-0.9,2.3-0.9,3.5c0,1.4,0.3,2.6,1,3.7c0.7,1.1,1.6,2.1,2.7,2.7s2.4,1,3.8,1
	s2.6-0.3,3.8-1s2.1-1.6,2.7-2.7c0.7-1.1,1-2.4,1-3.7c0-1.1-0.2-2.2-0.6-3.2c-0.3-0.8-0.8-1.5-1.5-2.3c-0.4-0.4-1-1.1-1.8-1.8
	c-0.9-0.8-1.5-1.5-1.8-1.9c-0.5-0.8-0.8-1.5-0.8-2.3c0-0.3-0.1-0.5-0.3-0.7C10.4,0.1,10.2,0,10,0L10,0z"/></svg>