<?xml version="1.0" encoding="UTF-8"?><!DOCTYPE svg PUBLIC "-//W3C//DTD SVG 1.1//EN" "http://www.w3.org/Graphics/SVG/1.1/DTD/svg11.dtd"><svg xmlns="http://www.w3.org/2000/svg" xmlns:xlink="http://www.w3.org/1999/xlink" version="1.1" width="20" height="20" viewBox="0 0 20 20"><path d="M3,17c0,0.6,0.4,1,1,1h12c0.6,0,1-0.4,1-1c0-0.2-0.1-0.4-0.2-0.6L11,6.4V2H9v4.4L3.2,16.4C3.1,16.6,3,16.8,3,17 M4,20
	c-1.7,0-3-1.3-3-3c0-0.6,0.2-1.2,0.5-1.6L7,5.8V4C6.4,4,6,3.6,6,3V2c0-1.1,0.9-2,2-2h4c1.1,0,2,0.9,2,2v1c0,0.6-0.4,1-1,1v1.8
	l5.5,9.6c0.3,0.5,0.5,1,0.5,1.6c0,1.7-1.3,3-3,3H4 M11,14l1.3-1.3l1.9,3.3H5.7l2.7-4.6L11,14 M10.5,10c0.3,0,0.5,0.2,0.5,0.5
	S10.8,11,10.5,11S10,10.8,10,10.5S10.2,10,10.5,10z"/></svg>