<?xml version="1.0" encoding="UTF-8"?><!DOCTYPE svg PUBLIC "-//W3C//DTD SVG 1.1//EN" "http://www.w3.org/Graphics/SVG/1.1/DTD/svg11.dtd"><svg xmlns="http://www.w3.org/2000/svg" xmlns:xlink="http://www.w3.org/1999/xlink" version="1.1" width="20" height="20" viewBox="0 0 20 20"><path d="M1,1C0.4,1,0,1.4,0,2v4v1.5c0,1.7,1,3.1,2.5,3.7v6.3C2.5,18.3,3.2,19,4,19s1.5-0.7,1.5-1.5v-6.3C7,10.6,8,9.2,8,7.5V6V2
	c0-0.6-0.4-1-1-1S6,1.4,6,2v4c0,0.3-0.2,0.5-0.5,0.5S5,6.3,5,6V2c0-0.6-0.4-1-1-1S3,1.4,3,2v4c0,0.3-0.2,0.5-0.5,0.5S2,6.3,2,6V2
	C2,1.4,1.6,1,1,1 M17.9,1c-0.1,0-0.3,0.1-0.4,0.2L14,3.2V7h-4v2h1l1,10h6l1-10h1V7h-4V4.3l2.5-1.5C19,2.6,19.1,2,18.8,1.5
	C18.6,1.1,18.3,1,17.9,1z"/></svg>