<?xml version="1.0" encoding="UTF-8"?><!DOCTYPE svg PUBLIC "-//W3C//DTD SVG 1.1//EN" "http://www.w3.org/Graphics/SVG/1.1/DTD/svg11.dtd"><svg xmlns="http://www.w3.org/2000/svg" xmlns:xlink="http://www.w3.org/1999/xlink" version="1.1" width="20" height="20" viewBox="0 0 20 20"><path d="M20,10v2h-3.39c1,2.14,0.95,8-6.23,8c-8.33,0.05-8.01-6.5-8.01-6.5l3.97,0.05c0.03,3.37,3.16,3.37,3.78,3.33
	c0.64-0.05,3.03-0.04,3.22-2.38c0.08-1.09-1.02-1.92-2.22-2.5H0v-2H20 M17.41,6.026l-3.98-0.03c0,0,0.17-2.77-3.28-2.78
	C6.7,3.196,7,5.416,7,5.696C7.04,5.976,7.34,7.34,10,8H3.71c0,0-3.49-6.714,5.03-7.864C17.45-1.064,17.43,6.046,17.41,6.026z"/></svg>