<?xml version="1.0" encoding="UTF-8"?><!DOCTYPE svg PUBLIC "-//W3C//DTD SVG 1.1//EN" "http://www.w3.org/Graphics/SVG/1.1/DTD/svg11.dtd"><svg xmlns="http://www.w3.org/2000/svg" xmlns:xlink="http://www.w3.org/1999/xlink" version="1.1" width="20" height="20" viewBox="0 0 20 20"><path d="M10.5,14.5H7v-3h3.5c0.828,0,1.5,0.672,1.5,1.5S11.328,14.5,10.5,14.5 M7,5.5h3c0.828,0,1.5,0.672,1.5,1.5
	S10.828,8.5,10,8.5H7 M12.6,9.79C13.57,9.11,14.25,8,14.25,7c0-2.26-1.75-4-4-4H4v14h7.04c2.1,0,3.71-1.7,3.71-3.79
	C14.75,11.69,13.89,10.39,12.6,9.79z"/></svg>