<?xml version="1.0" encoding="UTF-8"?><!DOCTYPE svg PUBLIC "-//W3C//DTD SVG 1.1//EN" "http://www.w3.org/Graphics/SVG/1.1/DTD/svg11.dtd"><svg xmlns="http://www.w3.org/2000/svg" xmlns:xlink="http://www.w3.org/1999/xlink" version="1.1" width="20" height="20" viewBox="0 0 20 20"><path d="M18.13,16c-0.06-0.17-0.15-0.46-0.2-0.89c-0.67,0.7-1.48,1.05-2.41,1.05c-0.83,0-1.52-0.24-2.05-0.71
	c-0.53-0.45-0.8-1.06-0.8-1.79c0-0.88,0.33-1.56,1-2.05c0.67-0.49,1.61-0.73,2.83-0.73h1.4v-0.64c0-0.49-0.15-0.88-0.45-1.17
	c-0.3-0.29-0.75-0.43-1.33-0.43c-0.52,0-0.95,0.12-1.3,0.36c-0.35,0.25-0.52,0.54-0.52,0.89h-1.46c0-0.43,0.15-0.84,0.45-1.24
	c0.28-0.4,0.71-0.71,1.22-0.94c0.51-0.21,1.06-0.35,1.69-0.35c0.98,0,1.74,0.24,2.29,0.73s0.84,1.16,0.86,2.02V14
	c0,0.8,0.1,1.42,0.3,1.88V16H18.13 M15.73,14.88c0.45,0,0.88-0.11,1.29-0.32c0.4-0.21,0.7-0.49,0.88-0.83v-1.57h-1.13
	c-1.77,0-2.66,0.47-2.66,1.41c0,0.43,0.15,0.73,0.46,0.96C14.87,14.76,15.25,14.88,15.73,14.88 M3.53,11.71H7.6L5.57,6.29
	L3.53,11.71 M4.71,4h1.72l4.71,12H9.21l-0.97-2.57H2.89L1.93,16H0L4.71,4z"/></svg>