<?xml version="1.0" encoding="UTF-8"?><!DOCTYPE svg PUBLIC "-//W3C//DTD SVG 1.1//EN" "http://www.w3.org/Graphics/SVG/1.1/DTD/svg11.dtd"><svg xmlns="http://www.w3.org/2000/svg" xmlns:xlink="http://www.w3.org/1999/xlink" version="1.1" width="20" height="20" viewBox="0 0 20 20"><path d="M1,3h2v6h4V3h2v14H7v-6H3v6H1V3 M19,17h-6c-1.105,0-2-0.895-2-2c0-0.53,0.2-1,0.54-1.36l4.87-5.23C16.78,8.05,17,7.55,17,7
	c0-1.105-0.895-2-2-2s-2,0.895-2,2h-2c0-2.209,1.791-4,4-4s4,1.791,4,4c0,1.1-0.45,2.1-1.17,2.83L13,15h6V17z"/></svg>