<?xml version="1.0" encoding="UTF-8"?><!DOCTYPE svg PUBLIC "-//W3C//DTD SVG 1.1//EN" "http://www.w3.org/Graphics/SVG/1.1/DTD/svg11.dtd"><svg xmlns="http://www.w3.org/2000/svg" xmlns:xlink="http://www.w3.org/1999/xlink" version="1.1" width="20" height="20" viewBox="0 0 20 20"><path d="M5,3h14v2H5V3 M5,11V9h14v2H5 M2,2.5c0.8,0,1.5,0.7,1.5,1.5S2.8,5.5,2,5.5S0.5,4.8,0.5,4S1.2,2.5,2,2.5 M2,8.5
	c0.8,0,1.5,0.7,1.5,1.5S2.8,11.5,2,11.5S0.5,10.8,0.5,10S1.2,8.5,2,8.5 M5,17v-2h14v2H5 M2,14.5c0.8,0,1.5,0.7,1.5,1.5
	S2.8,17.5,2,17.5S0.5,16.8,0.5,16S1.2,14.5,2,14.5z"/></svg>