<?xml version="1.0" encoding="UTF-8"?><!DOCTYPE svg PUBLIC "-//W3C//DTD SVG 1.1//EN" "http://www.w3.org/Graphics/SVG/1.1/DTD/svg11.dtd"><svg xmlns="http://www.w3.org/2000/svg" xmlns:xlink="http://www.w3.org/1999/xlink" version="1.1" width="20" height="20" viewBox="0 0 20 20"><path d="M5.2,16.4H3.8c-0.4,0-0.7-0.1-1-0.4c-0.3-0.3-0.4-0.6-0.4-1c0-0.4,0.1-0.7,0.4-1c0.3-0.3,0.6-0.4,1-0.4h1.3
	c0.4,0,0.7-0.1,1-0.4c0.3-0.3,0.4-0.6,0.4-0.9V9.5c0-0.4-0.1-0.7-0.4-1C5.8,8.3,5.5,8.1,5.2,8.1c-0.4,0-0.7,0.1-1,0.4
	c-0.3,0.3-0.4,0.6-0.4,1c0,0.3,0.1,0.6,0.3,0.9l0,0c0.2,0.3,0.3,0.6,0.3,0.9c0,0.4-0.1,0.7-0.4,1c-0.3,0.3-0.6,0.4-1,0.4
	c-0.6,0-1.1-0.4-1.5-1.2c-0.4-0.7-0.5-1.3-0.5-2c0-1.1,0.4-2.1,1.2-2.9C3.1,5.8,4,5.4,5.1,5.4c1.1,0,2.1,0.4,2.9,1.2
	c0.8,0.8,1.2,1.8,1.2,2.9v2.8c0,1.1-0.4,2.1-1.2,2.9C7.2,16,6.3,16.4,5.2,16.4z M20,9.9c0,0.3-0.1,0.6-0.4,0.9
	c-0.2,0.2-0.5,0.4-0.9,0.4h-1.7v1.2c0,0.3-0.1,0.6-0.4,0.9c-0.2,0.2-0.5,0.4-0.9,0.4c-0.3,0-0.6-0.1-0.9-0.4
	c-0.2-0.2-0.4-0.5-0.4-0.9v-5c0-1,0.4-1.9,1.1-2.7c0.7-0.7,1.6-1.1,2.6-1.1h0.5c0.3,0,0.6,0.1,0.9,0.4C19.9,4.3,20,4.6,20,4.9
	c0,0.3-0.1,0.6-0.4,0.9c-0.2,0.2-0.5,0.4-0.9,0.4h-0.5c-0.3,0-0.6,0.1-0.9,0.4c-0.2,0.2-0.4,0.5-0.4,0.9v1.3h1.7
	c0.3,0,0.6,0.1,0.9,0.4C19.9,9.3,20,9.6,20,9.9z M13.3,12.4c0,0.3-0.1,0.6-0.4,0.9c-0.2,0.2-0.5,0.4-0.9,0.4c-0.3,0-0.6-0.1-0.9-0.4
	c-0.2-0.2-0.4-0.5-0.4-0.9V8.3c0-0.3,0.1-0.6,0.4-0.9c0.2-0.2,0.5-0.4,0.9-0.4c0.3,0,0.6,0.1,0.9,0.4c0.2,0.2,0.4,0.5,0.4,0.9V12.4z
	 M0.3,6.9C0.1,6.1,0,5.4,0,5.4C0,5.2,0.1,5,0.3,5.1c0,0,0.2,0,0.4,0.1C1,5.2,1.3,5.3,1.6,5.4c0.6,0.1,1.1,0.3,1.1,0.3
	S2.1,6.1,1.6,6.6C1.1,7.2,0.8,8,0.8,8S0.5,7.6,0.3,6.9z M10.1,6.9c0.2-0.7,0.3-1.5,0.3-1.5c0-0.2-0.1-0.3-0.3-0.3
	c0,0-0.7,0.1-1.3,0.3C8.3,5.5,7.7,5.7,7.7,5.7s0.6,0.4,1.1,0.9C9.3,7.2,9.6,8,9.6,8S9.9,7.6,10.1,6.9z M13.3,4.9
	c0,0.3-0.1,0.6-0.4,0.9c-0.2,0.2-0.5,0.4-0.9,0.4c-0.3,0-0.6-0.1-0.9-0.4c-0.2-0.2-0.4-0.5-0.4-0.9c0-0.3,0.1-0.6,0.4-0.9
	c0.2-0.2,0.5-0.4,0.9-0.4c0.3,0,0.6,0.1,0.9,0.4C13.2,4.3,13.3,4.5,13.3,4.9z"/></svg>