<?xml version="1.0" encoding="UTF-8"?><!DOCTYPE svg PUBLIC "-//W3C//DTD SVG 1.1//EN" "http://www.w3.org/Graphics/SVG/1.1/DTD/svg11.dtd"><svg xmlns="http://www.w3.org/2000/svg" xmlns:xlink="http://www.w3.org/1999/xlink" version="1.1" width="20" height="20" viewBox="0 0 20 20"><path d="M10,0C4.5,0,0,4.5,0,10s4.5,10,10,10c5.5,0,10-4.5,10-10S15.5,0,10,0z M18,10.5c-0.3,0.4-1.7,1.2-4,1.6
	C14,11.4,14,10.7,14,10c0-0.5,0-0.9,0-1.3c1.2-0.2,2.4-0.5,3.3-0.9c0.1-0.1,0.3-0.1,0.4-0.2C17.9,8.3,18,9.2,18,10
	C18,10.2,18,10.3,18,10.5L18,10.5z M8.5,14.4c0.5,0,1,0.1,1.5,0.1c0.5,0,1,0,1.5-0.1c-0.5,2-1.1,3.2-1.5,3.5
	C9.6,17.6,8.9,16.4,8.5,14.4z M10,12.5c-0.7,0-1.3,0-1.9-0.1C8.1,11.7,8,10.9,8,10c0-0.4,0-0.7,0-1.1C8.7,9,9.3,9,10,9s1.3,0,2-0.1
	c0,0.4,0,0.7,0,1.1c0,0.9-0.1,1.7-0.1,2.4C11.3,12.5,10.7,12.5,10,12.5z M11.8,6.9C11.2,7,10.6,7,10,7S8.8,7,8.2,6.9
	C8.6,4.1,9.5,2.4,10,2C10.5,2.4,11.4,4.1,11.8,6.9z M16.8,5.8c-0.7,0.3-1.7,0.7-3,0.9c-0.2-1.6-0.6-3.1-1.1-4.2
	C14.4,3.1,15.8,4.2,16.8,5.8z M3.2,5.8c1-1.5,2.4-2.7,4.2-3.3C6.9,3.6,6.5,5,6.2,6.7C4.9,6.4,3.9,6.1,3.2,5.8L3.2,5.8z M2.4,7.6
	c0.1,0.1,0.2,0.1,0.4,0.2c0.9,0.4,2,0.7,3.3,0.9C6,9.1,6,9.5,6,10c0,0.7,0,1.4,0.1,2.1c-2.3-0.4-3.7-1.2-4-1.6h0c0-0.2,0-0.3,0-0.5
	C2,9.2,2.1,8.3,2.4,7.6z M2.7,13.2c1,0.4,2.3,0.8,3.7,1c0.2,1.3,0.6,2.4,1,3.3C5.3,16.8,3.6,15.2,2.7,13.2z M17.3,13.2
	c-0.9,2-2.6,3.6-4.7,4.3c0.4-0.9,0.8-2,1-3.3C15,14,16.3,13.7,17.3,13.2L17.3,13.2z"/></svg>