<?xml version="1.0" encoding="UTF-8"?><!DOCTYPE svg PUBLIC "-//W3C//DTD SVG 1.1//EN" "http://www.w3.org/Graphics/SVG/1.1/DTD/svg11.dtd"><svg xmlns="http://www.w3.org/2000/svg" xmlns:xlink="http://www.w3.org/1999/xlink" version="1.1" width="20" height="20" viewBox="0 0 20 20"><path d="M10,0c3.9,0,7,3.1,7,7c0,2.4-1.2,4.5-3,5.7V15c0,0.6-0.4,1-1,1H7c-0.6,0-1-0.4-1-1v-2.3C4.2,11.5,3,9.4,3,7
	C3,3.1,6.1,0,10,0 M7,19v-1h6v1c0,0.6-0.4,1-1,1H8C7.4,20,7,19.6,7,19 M10,2C7.2,2,5,4.2,5,7c0,2.1,1.2,3.8,3,4.6V14h4v-2.4
	c1.8-0.8,3-2.5,3-4.6C15,4.2,12.8,2,10,2z"/></svg>