<?xml version="1.0" encoding="UTF-8"?><!DOCTYPE svg PUBLIC "-//W3C//DTD SVG 1.1//EN" "http://www.w3.org/Graphics/SVG/1.1/DTD/svg11.dtd"><svg xmlns="http://www.w3.org/2000/svg" xmlns:xlink="http://www.w3.org/1999/xlink" version="1.1" width="20" height="20" viewBox="0 0 20 20"><path d="M0,3.3L1.3,2L18,18.7L16.7,20l-4.8-4.8l-2.6,2.6c-1.9,1.9-5.1,1.9-7.1,0s-1.9-5.1,0-7.1l1.5-1.5c0,0.8,0.1,1.6,0.4,2.4
	l-0.5,0.5c-1.2,1.2-1.2,3.1,0,4.2c1.2,1.2,3.1,1.2,4.2,0l2.6-2.6l-1.6-1.6c0,0.2-0.1,0.5-0.3,0.7c-0.4,0.4-1,0.4-1.4,0
	C6.1,11.8,5.6,10.4,5.7,9L0,3.3 M10.7,2.2c1.9-1.9,5.1-1.9,7.1,0s1.9,5.1,0,7.1l-1.5,1.5c0-0.8-0.1-1.6-0.4-2.4l0.5-0.5
	c1.2-1.2,1.2-3.1,0-4.2c-1.2-1.2-3.1-1.2-4.2,0L8.8,7L7.4,5.6L10.7,2.2 M11.4,7.2c0.4-0.4,1-0.4,1.4,0c1.4,1.4,1.8,3.3,1.2,5.1
	l-1.8-1.8c-0.1-0.7-0.3-1.4-0.9-1.9C11,8.2,11,7.6,11.4,7.2z"/></svg>