<?xml version="1.0" encoding="UTF-8"?><!DOCTYPE svg PUBLIC "-//W3C//DTD SVG 1.1//EN" "http://www.w3.org/Graphics/SVG/1.1/DTD/svg11.dtd"><svg xmlns="http://www.w3.org/2000/svg" xmlns:xlink="http://www.w3.org/1999/xlink" version="1.1" width="20" height="20" viewBox="0 0 20 20"><path d="M8.6,11.4c0.4,0.4,0.4,1,0,1.4c-0.4,0.4-1,0.4-1.4,0c-2-1.9-2-5.1,0-7.1l0,0l3.5-3.5c1.9-1.9,5.1-1.9,7.1,0s1.9,5.1,0,7.1
	l-1.5,1.5c0-0.8-0.1-1.6-0.4-2.4l0.5-0.5c1.2-1.2,1.2-3.1,0-4.2c-1.2-1.2-3.1-1.2-4.2,0L8.6,7.2C7.4,8.3,7.4,10.2,8.6,11.4
	 M11.4,7.2c0.4-0.4,1-0.4,1.4,0c2,1.9,2,5.1,0,7.1l0,0l-3.5,3.5c-1.9,1.9-5.1,1.9-7.1,0s-1.9-5.1,0-7.1l1.5-1.5
	c0,0.8,0.1,1.6,0.4,2.4l-0.5,0.5c-1.2,1.2-1.2,3.1,0,4.2c1.2,1.2,3.1,1.2,4.2,0l3.5-3.5c1.2-1.2,1.2-3.1,0-4.2
	C11,8.2,11,7.6,11.4,7.2z"/></svg>