<?xml version="1.0" encoding="UTF-8"?><!DOCTYPE svg PUBLIC "-//W3C//DTD SVG 1.1//EN" "http://www.w3.org/Graphics/SVG/1.1/DTD/svg11.dtd"><svg xmlns="http://www.w3.org/2000/svg" xmlns:xlink="http://www.w3.org/1999/xlink" version="1.1" width="20" height="20" viewBox="0 0 20 20"><path d="M18.224,16.829l-3.775-3.775C15.418,11.791,16,10.215,16,8.5C16,4.358,12.642,1,8.5,1S1,4.358,1,8.5S4.358,16,8.5,16
	c1.708,0,3.278-0.578,4.539-1.539l3.775,3.749c0.39,0.388,1.02,0.388,1.41,0C18.592,17.823,18.592,17.216,18.224,16.829z M3,8.5
	C3,5.462,5.462,3,8.5,3S14,5.462,14,8.5S11.538,14,8.5,14S3,11.538,3,8.5z"/></svg>