<?xml version="1.0" encoding="UTF-8"?><!DOCTYPE svg PUBLIC "-//W3C//DTD SVG 1.1//EN" "http://www.w3.org/Graphics/SVG/1.1/DTD/svg11.dtd"><svg xmlns="http://www.w3.org/2000/svg" xmlns:xlink="http://www.w3.org/1999/xlink" version="1.1" width="20" height="20" viewBox="0 0 20 20"><path d="M15.876,1.909l0.105,2.122c1.721,1.901,2.4,4.593,1.543,7.124c-1.279,3.777-5.495,5.763-9.417,4.435
	c-3.922-1.328-6.066-5.466-4.787-9.243C4.18,3.808,6.367,2.078,8.899,1.62l1.368-1.617C5.999-0.112,1.972,2.538,0.531,6.794
	c-1.77,5.23,1.034,10.905,6.264,12.675c5.23,1.77,10.905-1.034,12.675-6.264C20.908,8.956,19.326,4.412,15.876,1.909z M13.425,8.172
	l-0.072-2.967l-0.058-1.707l-0.039-1.479c0,0,0.008-0.713-0.017-0.881c-0.005-0.035-0.016-0.064-0.03-0.089l-0.005-0.01
	l-0.006-0.009c-0.027-0.047-0.07-0.085-0.126-0.104c-0.057-0.019-0.116-0.014-0.167,0.008l-0.003,0.001l-0.018,0.009
	c-0.024,0.012-0.049,0.027-0.073,0.051c-0.122,0.118-0.548,0.69-0.548,0.69l-0.93,1.151L10.25,4.154L8.39,6.467
	c0,0-0.854,1.065-0.665,2.377c0.189,1.311,1.163,1.95,1.92,2.206c0.756,0.256,1.919,0.341,2.865-0.586
	C13.456,9.536,13.425,8.172,13.425,8.172z"/></svg>