<?xml version="1.0" encoding="utf-8"?>
<!-- Generator: Adobe Illustrator 24.0.0, SVG Export Plug-In . SVG Version: 6.00 Build 0)  -->
<svg version="1.1" id="Layer_1" xmlns="http://www.w3.org/2000/svg" xmlns:xlink="http://www.w3.org/1999/xlink" x="0px" y="0px"
	 viewBox="0 0 20 20" style="enable-background:new 0 0 20 20;" xml:space="preserve">
<path d="M10,18c-4.4,0-8-3.6-8-8s3.6-8,8-8s8,3.6,8,8S14.4,18,10,18 M10,0C4.5,0,0,4.5,0,10s4.5,10,10,10s10-4.5,10-10S15.5,0,10,0z
	 M10,3c-3.9,0-7,3.1-7,7s3.1,7,7,7s7-3.1,7-7S13.9,3,10,3z M12.8,14c-0.1,0-0.2,0-0.3,0c-0.4,0-0.8-0.3-0.9-0.6L11.1,12H8.8
	l-0.4,1.4C8.3,13.7,7.9,14,7.5,14c-0.1,0-0.2,0-0.3,0c-0.5-0.1-0.8-0.7-0.6-1.2l1.9-6.1C8.7,6.3,9,6,9.4,6h1c0.1,0,0.2,0,0.3,0
	c0.2,0.1,0.4,0.2,0.5,0.3c0.1,0.1,0.1,0.2,0.1,0.3l2,6.1C13.5,13.3,13.3,13.8,12.8,14z M5,10c0-1.7,0.9-3.3,2.3-4.2
	C7.2,5.9,7.2,6.1,7.1,6.2l-1.8,5.6C5.1,11.2,5,10.6,5,10z M10,15c-0.3,0-0.6,0-0.9-0.1c0.3-0.3,0.6-0.7,0.7-1.1l0.1-0.3H10l0.1,0.4
	c0.1,0.4,0.4,0.8,0.7,1.1C10.6,15,10.3,15,10,15z M14.6,11.8l-1.9-5.6c0-0.2-0.1-0.3-0.2-0.4C14,6.6,15,8.2,15,10
	C15,10.6,14.9,11.2,14.6,11.8z"/>
</svg>
