<?xml version="1.0" encoding="UTF-8"?><!DOCTYPE svg PUBLIC "-//W3C//DTD SVG 1.1//EN" "http://www.w3.org/Graphics/SVG/1.1/DTD/svg11.dtd"><svg xmlns="http://www.w3.org/2000/svg" xmlns:xlink="http://www.w3.org/1999/xlink" version="1.1" width="20" height="20" viewBox="0 0 20 20"><path d="M10,20C4.5,20,0,15.5,0,10S4.5,0,10,0c5.5,0,10,4,10,9c0,3.3-2.7,6-6,6h-1.8c-0.3,0-0.5,0.2-0.5,0.5c0,0.1,0.1,0.2,0.1,0.3
	c0.4,0.5,0.6,1.1,0.6,1.7C12.5,18.9,11.4,20,10,20 M10,2c-4.4,0-8,3.6-8,8s3.6,8,8,8c0.3,0,0.5-0.2,0.5-0.5c0-0.2-0.1-0.3-0.1-0.4
	c-0.4-0.5-0.6-1-0.6-1.6c0-1.4,1.1-2.5,2.5-2.5H14c2.2,0,4-1.8,4-4C18,5.1,14.4,2,10,2 M4.5,8C5.3,8,6,8.7,6,9.5S5.3,11,4.5,11
	S3,10.3,3,9.5S3.7,8,4.5,8 M7.5,4C8.3,4,9,4.7,9,5.5S8.3,7,7.5,7S6,6.3,6,5.5S6.7,4,7.5,4 M12.5,4C13.3,4,14,4.7,14,5.5
	S13.3,7,12.5,7S11,6.3,11,5.5S11.7,4,12.5,4 M15.5,8C16.3,8,17,8.7,17,9.5S16.3,11,15.5,11S14,10.3,14,9.5S14.7,8,15.5,8z"/></svg>