<?xml version="1.0" encoding="UTF-8"?><!DOCTYPE svg PUBLIC "-//W3C//DTD SVG 1.1//EN" "http://www.w3.org/Graphics/SVG/1.1/DTD/svg11.dtd"><svg xmlns="http://www.w3.org/2000/svg" xmlns:xlink="http://www.w3.org/1999/xlink" version="1.1" width="20" height="20" viewBox="0 0 20 20"><path d="M14.5,5v9.5c0,2.209-1.791,4-4,4s-4-1.791-4-4V4c0-1.381,1.119-2.5,2.5-2.5s2.5,1.119,2.5,2.5v9.5c0,0.552-0.448,1-1,1
	s-1-0.448-1-1V5H8v8.5c0,1.381,1.119,2.5,2.5,2.5s2.5-1.119,2.5-2.5V4c0-2.209-1.791-4-4-4S5,1.791,5,4v10.5
	c0,3.038,2.462,5.5,5.5,5.5s5.5-2.462,5.5-5.5V5H14.5z"/></svg>