<?xml version="1.0" encoding="UTF-8"?><!DOCTYPE svg PUBLIC "-//W3C//DTD SVG 1.1//EN" "http://www.w3.org/Graphics/SVG/1.1/DTD/svg11.dtd"><svg xmlns="http://www.w3.org/2000/svg" xmlns:xlink="http://www.w3.org/1999/xlink" version="1.1" width="20" height="20" viewBox="0 0 20 20"><path d="M19.706,7.801L18.707,6.8l-6.492-6.504c-0.002-0.002-0.004-0.004-0.006-0.006c-0.392-0.389-1.024-0.387-1.413,0.006
	c-0.002,0.002-0.004,0.004-0.006,0.006c-0.388,0.392-0.386,1.026,0.006,1.415l0.3,0.29L6.651,6.41
	C4.958,6.199,3.238,6.426,1.657,7.07c-0.322,0.115-0.563,0.387-0.639,0.72c-0.064,0.333,0.045,0.676,0.29,0.911l4.243,4.25
	L1.5,17.001l-1,2.499l2.5-1l4.049-4.048l4.247,4.255c0.245,0.241,0.595,0.339,0.929,0.26c0.333-0.076,0.605-0.318,0.719-0.64
	c0.643-1.584,0.87-3.306,0.659-5.003l4.395-4.403l0.29,0.3c0.392,0.392,1.027,0.392,1.418,0C20.098,8.829,20.098,8.193,19.706,7.801
	z M11.765,12.274c-0.262,0.262-0.358,0.646-0.25,1.001c0.235,0.926,0.235,1.896,0,2.822L3.905,8.471
	c0.924-0.235,1.892-0.235,2.817,0c0.354,0.108,0.738,0.012,0.999-0.25l4.784-4.803l4.055,4.063L11.765,12.274z"/></svg>