<?xml version="1.0" encoding="UTF-8"?><!DOCTYPE svg PUBLIC "-//W3C//DTD SVG 1.1//EN" "http://www.w3.org/Graphics/SVG/1.1/DTD/svg11.dtd"><svg xmlns="http://www.w3.org/2000/svg" xmlns:xlink="http://www.w3.org/1999/xlink" version="1.1" width="20" height="20" viewBox="0 0 20 20"><path d="M16.203,10.161l2.828-2.828c0.391-0.391,0.391-1.024,0-1.414c-0.391-0.391-1.024-0.391-1.414,0l-2.828,2.828l-3.536-3.536
	l2.828-2.828c0.391-0.391,0.391-1.024,0-1.414c-0.391-0.391-1.024-0.391-1.414,0L9.839,3.797L7.01,0.969
	c-0.391-0.391-1.024-0.391-1.414,0L5.59,0.975C5.2,1.365,5.2,1.998,5.59,2.389l0.707,0.707L3.121,6.272
	c-2.692,2.692-2.903,6.918-0.646,9.859c-0.019,0.016-0.043,0.023-0.061,0.041l-2.121,2.121c-0.391,0.391-0.391,1.024,0,1.414
	s1.024,0.391,1.414,0l2.121-2.121c0.018-0.018,0.024-0.042,0.041-0.061c2.941,2.257,7.167,2.046,9.859-0.646l3.176-3.176
	l0.707,0.707c0.391,0.391,1.024,0.391,1.414,0l0.006-0.006c0.391-0.391,0.391-1.024,0-1.414L16.203,10.161z M12.314,15.464
	c-2.144,2.144-5.634,2.144-7.778,0c-2.144-2.144-2.144-5.634,0-7.778L7.712,4.51l7.778,7.778L12.314,15.464z"/></svg>