<?xml version="1.0" encoding="UTF-8"?><!DOCTYPE svg PUBLIC "-//W3C//DTD SVG 1.1//EN" "http://www.w3.org/Graphics/SVG/1.1/DTD/svg11.dtd"><svg xmlns="http://www.w3.org/2000/svg" xmlns:xlink="http://www.w3.org/1999/xlink" version="1.1" width="20" height="20" viewBox="0 0 20 20"><path d="M6.5,6.1L6.5,6.1v2l1.9,0.1c2.7,0.1,4.9,1.2,6.7,3.3c-2.1-0.7-4.3-0.8-6.7-0.8h-2v2v0.7L2.7,9.7L6.5,6.1 M8.3,2
	C8.2,2,8,2,7.8,2.1L0.1,9.3C0,9.4,0,9.5,0,9.7C0,9.8,0,9.9,0.1,10l7.7,7.4c0.1,0.1,0.3,0.1,0.4,0.1c0.1-0.1,0.2-0.2,0.2-0.5v-4.4
	c4.7,0,8.3,0.5,10.8,5.1c0.1,0.1,0.2,0.2,0.3,0.2h0.1c0.2-0.1,0.3-0.3,0.2-0.5c0.1-0.3-0.3-3-2.1-5.8c-2.2-3.5-5.4-5.4-9.3-5.6V2.3
	C8.5,2.1,8.4,2,8.3,2L8.3,2z"/></svg>