<?xml version="1.0" encoding="UTF-8"?><!DOCTYPE svg PUBLIC "-//W3C//DTD SVG 1.1//EN" "http://www.w3.org/Graphics/SVG/1.1/DTD/svg11.dtd"><svg xmlns="http://www.w3.org/2000/svg" xmlns:xlink="http://www.w3.org/1999/xlink" version="1.1" width="20" height="20" viewBox="0 0 20 20"><path d="M18,8.7h0.7c0.7,0,1.3,0.6,1.3,1.3v2.7c0,0.7-0.6,1.3-1.3,1.3H18V8.7z M1.3,8.7H2V14H1.3
			C0.6,14,0,13.4,0,12.7V10C0,9.3,0.6,8.7,1.3,8.7z M12.7,11.3c0.7,0,1.3-0.6,1.3-1.3s-0.6-1.3-1.3-1.3c-0.7,0-1.3,0.6-1.3,1.3
			S11.9,11.3,12.7,11.3z M7.3,11.3c0.7,0,1.3-0.6,1.3-1.3S8.1,8.7,7.3,8.7S6,9.3,6,10S6.6,11.3,7.3,11.3z M6,13.1c0,0.1,0,0.2,0,0.2
			c0,1.5,1.8,2.7,4,2.7s4-1.2,4-2.7c0-0.1,0-0.2,0-0.2c-1,0.5-2.4,0.9-4,0.9S7,13.7,6,13.1z M8.7,4.7V3.3C8.7,2.6,9.3,2,10,2
			s1.3,0.6,1.3,1.3v1.3H14c1.5,0,2.7,1.2,2.7,2.7v8c0,1.5-1.2,2.7-2.7,2.7H6c-1.5,0-2.7-1.2-2.7-2.7v-8c0-1.5,1.2-2.7,2.7-2.7H8.7z" /></svg>