<?xml version="1.0" encoding="UTF-8"?><!DOCTYPE svg PUBLIC "-//W3C//DTD SVG 1.1//EN" "http://www.w3.org/Graphics/SVG/1.1/DTD/svg11.dtd"><svg xmlns="http://www.w3.org/2000/svg" xmlns:xlink="http://www.w3.org/1999/xlink" version="1.1" width="20" height="20" viewBox="0 0 20 20"><path d="M17,1H3C1.9,1,1,1.9,1,3v3v7v3c0,1.1,0.9,2,2,2h14c1.1,0,2-0.9,2-2v-3V6V3C19,1.9,18.1,1,17,1z M3,8h14v3H3V8z M17,16H3v-3
	h14V16z M3,6V3h14v3H3z M9,5H5V4h4V5z M13,5h-2V4h2V5z M9,10H5V9h4V10z M13,10h-2V9h2V10z M9,15H5v-1h4V15z M13,15h-2v-1h2V15z"/></svg>