<?xml version="1.0" encoding="UTF-8"?><!DOCTYPE svg PUBLIC "-//W3C//DTD SVG 1.1//EN" "http://www.w3.org/Graphics/SVG/1.1/DTD/svg11.dtd"><svg xmlns="http://www.w3.org/2000/svg" xmlns:xlink="http://www.w3.org/1999/xlink" version="1.1" width="20" height="20" viewBox="0 0 20 20"><path d="M10,6c2.2,0,4,1.8,4,4s-1.8,4-4,4s-4-1.8-4-4S7.8,6,10,6 M10,8c-1.1,0-2,0.9-2,2s0.9,2,2,2s2-0.9,2-2S11.1,8,10,8 M8,20
	c-0.2,0-0.5-0.2-0.5-0.4l-0.4-2.6c-0.6-0.2-1.2-0.6-1.7-1l-2.5,1c-0.2,0.1-0.5,0-0.6-0.2l-2-3.5c-0.1-0.2-0.1-0.5,0.1-0.6L2.6,11
	l-0.1-1l0.1-1L0.5,7.4C0.3,7.2,0.2,6.9,0.3,6.7l2-3.5C2.5,3.1,2.7,3,2.9,3.1l2.5,1c0.5-0.4,1.1-0.7,1.7-1l0.4-2.7C7.5,0.2,7.8,0,8,0
	h4c0.2,0,0.5,0.2,0.5,0.4l0.4,2.7c0.6,0.2,1.2,0.6,1.7,1l2.5-1c0.2-0.1,0.5,0,0.6,0.2l2,3.5c0.1,0.2,0.1,0.5-0.1,0.6L17.4,9l0.1,1
	l-0.1,1l2.1,1.6c0.2,0.1,0.2,0.4,0.1,0.6l-2,3.5C17.5,17,17.3,17,17,17l-2.5-1c-0.5,0.4-1.1,0.7-1.7,1l-0.4,2.6
	c0,0.2-0.2,0.4-0.5,0.4H8 M9.2,2L8.9,4.6c-1.2,0.2-2.3,0.9-3,1.8l-2.4-1L2.7,6.6l2.1,1.6c-0.4,1.2-0.4,2.4,0,3.6l-2.1,1.6l0.8,1.3
	l2.4-1c0.8,0.9,1.8,1.5,3,1.8L9.2,18h1.5l0.4-2.6c1.2-0.2,2.2-0.9,3-1.8l2.4,1l0.8-1.3l-2.1-1.5c0.4-1.2,0.4-2.4,0-3.6l2.1-1.6
	l-0.8-1.3l-2.4,1c-0.8-0.9-1.8-1.5-3-1.8L10.8,2H9.2z"/></svg>