<?xml version="1.0" encoding="UTF-8"?><!DOCTYPE svg PUBLIC "-//W3C//DTD SVG 1.1//EN" "http://www.w3.org/Graphics/SVG/1.1/DTD/svg11.dtd"><svg xmlns="http://www.w3.org/2000/svg" xmlns:xlink="http://www.w3.org/1999/xlink" version="1.1" width="20" height="20" viewBox="0 0 20 20"><path d="M10,0C4.5,0,0,4.5,0,10s4.5,10,10,10s10-4.5,10-10S15.5,0,10,0 M10,1c1.8,0,3.4,0.5,4.8,1.4L14.5,3H11h-1L8.3,2.2l0.4-1
	C9.1,1,9.5,1,10,1 M7.5,1.4l-0.3,1L4.6,3.7L3.4,3.9C4.5,2.7,5.9,1.8,7.5,1.4 M11,4h3l2.7,3.6l-1.2,2.6l-2.6,0.6L9.5,6.9L11,4
	 M4.2,4.7L5,8l-1.2,3.1l-2.6,0.9C1.1,11.3,1,10.7,1,10c0-1.9,0.6-3.6,1.6-5.1L4.2,4.7 M18.6,7.2C18.9,8.1,19,9,19,10
	c0,1.4-0.4,2.8-1,4h-1l-0.8-3.3l1.5-3L18.6,7.2 M6,8h3l2.8,3.3L10,14l-3.2,0.8l-2.3-3.1L6,8 M10,15l3,2l-0.9,1.7
	C11.4,18.9,10.7,19,10,19c-1.8,0-3.4-0.5-4.8-1.4l1.2-1.7L10,15 M17,15h0.5c-1,1.5-2.5,2.7-4.2,3.3L14,17L17,15z"/></svg>