<?xml version="1.0" encoding="UTF-8"?><!DOCTYPE svg PUBLIC "-//W3C//DTD SVG 1.1//EN" "http://www.w3.org/Graphics/SVG/1.1/DTD/svg11.dtd"><svg xmlns="http://www.w3.org/2000/svg" xmlns:xlink="http://www.w3.org/1999/xlink" version="1.1" width="20" height="20" viewBox="0 0 20 20"><path d="M11,12c-3.4,0-4.5,1.4-4.8,2.2C7.2,14.7,8,15.8,8,17c0,1.7-1.3,3-3,3s-3-1.3-3-3c0-1.3,0.8-2.4,2-2.8V5.8C2.8,5.4,2,4.3,2,3
	c0-1.7,1.3-3,3-3s3,1.3,3,3c0,1.3-0.8,2.4-2,2.8v5.3c0.9-0.6,2.2-1.1,4-1.1c2.7,0,3.6-1.3,3.9-2.2C12.8,7.3,12,6.2,12,5
	c0-1.7,1.3-3,3-3s3,1.3,3,3c0,1.3-0.9,2.5-2.1,2.9C15.6,9.3,14.7,12,11,12 M5,16c-0.6,0-1,0.4-1,1s0.4,1,1,1s1-0.4,1-1S5.6,16,5,16
	 M5,2C4.4,2,4,2.4,4,3s0.4,1,1,1s1-0.4,1-1S5.6,2,5,2 M15,4c-0.6,0-1,0.4-1,1s0.4,1,1,1s1-0.4,1-1S15.6,4,15,4z"/></svg>