<?xml version="1.0" encoding="UTF-8"?><!DOCTYPE svg PUBLIC "-//W3C//DTD SVG 1.1//EN" "http://www.w3.org/Graphics/SVG/1.1/DTD/svg11.dtd"><svg xmlns="http://www.w3.org/2000/svg" xmlns:xlink="http://www.w3.org/1999/xlink" version="1.1" width="20" height="20" viewBox="0 0 20 20"><path d="M4,1c1.7,0,3,1.3,3,3c0,1.3-0.8,2.4-2,2.8v6.3c1.2,0.4,2,1.5,2,2.8c0,1.7-1.3,3-3,3s-3-1.3-3-3c0-1.3,0.8-2.4,2-2.8V6.8
	C1.8,6.4,1,5.3,1,4C1,2.3,2.3,1,4,1 M4,3C3.4,3,3,3.4,3,4s0.4,1,1,1s1-0.4,1-1S4.6,3,4,3 M4,15c-0.6,0-1,0.4-1,1s0.4,1,1,1
	s1-0.4,1-1S4.6,15,4,15 M19,16c0,1.7-1.3,3-3,3s-3-1.3-3-3c0-1.3,0.8-2.4,2-2.8V5h-2v3L8.8,4L13,0v3h2c1.1,0,2,0.9,2,2v8.2
	C18.2,13.6,19,14.7,19,16 M16,15c-0.6,0-1,0.4-1,1s0.4,1,1,1s1-0.4,1-1S16.6,15,16,15z"/></svg>