<?xml version="1.0" encoding="UTF-8"?><!DOCTYPE svg PUBLIC "-//W3C//DTD SVG 1.1//EN" "http://www.w3.org/Graphics/SVG/1.1/DTD/svg11.dtd"><svg xmlns="http://www.w3.org/2000/svg" xmlns:xlink="http://www.w3.org/1999/xlink" version="1.1" width="20" height="20" viewBox="0 0 20 20"><path d="M10,0C9.4,0,8.8,0.4,8.6,1L6.8,6L1.5,6.1c-0.6,0-1.2,0.4-1.4,1c-0.2,0.6,0,1.3,0.5,1.7L4.9,12l-1.5,5.1
		c-0.2,0.6,0,1.3,0.5,1.6C4.1,18.9,4.4,19,4.7,19c0.3,0,0.6-0.1,0.9-0.3l4.4-3l4.4,3c0.3,0.2,0.6,0.3,0.9,0.3c0.3,0,0.6-0.1,0.9-0.3
		c0.5-0.4,0.7-1,0.5-1.6L15.1,12l4.3-3.2c0.5-0.4,0.7-1.1,0.5-1.7c-0.2-0.6-0.8-1-1.4-1L13.2,6l-1.8-5C11.2,0.4,10.6,0,10,0L10,0z"
		/></svg>