<?xml version="1.0" encoding="UTF-8"?><!DOCTYPE svg PUBLIC "-//W3C//DTD SVG 1.1//EN" "http://www.w3.org/Graphics/SVG/1.1/DTD/svg11.dtd"><svg xmlns="http://www.w3.org/2000/svg" xmlns:xlink="http://www.w3.org/1999/xlink" version="1.1" width="20" height="20" viewBox="0 0 20 20"><path d="M9.8,15.5c-3,0-5.5-2.4-5.5-5.5c0-0.9,0.2-1.8,0.6-2.5L3.6,6.1C2.9,7.2,2.5,8.6,2.5,10c0,4,3.3,7.3,7.3,7.3V20l3.6-3.6
	l-3.6-3.6 M9.8,2.7V0L6.1,3.6l3.6,3.6V4.5c3,0,5.5,2.4,5.5,5.5c0,0.9-0.2,1.8-0.6,2.5l1.3,1.3c0.7-1.1,1.1-2.4,1.1-3.9
	C17,6,13.8,2.7,9.8,2.7z"/></svg>