<?xml version="1.0" encoding="UTF-8"?><!DOCTYPE svg PUBLIC "-//W3C//DTD SVG 1.1//EN" "http://www.w3.org/Graphics/SVG/1.1/DTD/svg11.dtd"><svg xmlns="http://www.w3.org/2000/svg" xmlns:xlink="http://www.w3.org/1999/xlink" version="1.1" width="20" height="20" viewBox="0 0 20 20"><path d="M13,4.5v2.6c0,0.6,0.4,1,1,1h0.4c0.4,0,0.8-0.1,1.1-0.3L18,6.1v8l-2.5-1.7c-0.3-0.2-0.7-0.3-1.1-0.3H14c-0.6,0-1,0.4-1,1
	v2.4H2v-11H13 M13,2.5H2c-1.1,0-2,0.9-2,2v11c0,1.1,0.9,2,2,2h11c1.1,0,2-0.9,2-2v-1l1.9,1.3c0.3,0.2,0.7,0.3,1.1,0.3
	c0.3,0,0.6-0.1,0.9-0.2c0.7-0.3,1.1-1,1.1-1.8v-8c0-0.7-0.4-1.4-1.1-1.8c-0.3-0.2-0.6-0.2-0.9-0.2c-0.4,0-0.8,0.1-1.1,0.3L15,5.7
	V4.5C15,3.4,14.1,2.5,13,2.5L13,2.5z"/></svg>