<?xml version="1.0" encoding="UTF-8"?><!DOCTYPE svg PUBLIC "-//W3C//DTD SVG 1.1//EN" "http://www.w3.org/Graphics/SVG/1.1/DTD/svg11.dtd"><svg xmlns="http://www.w3.org/2000/svg" xmlns:xlink="http://www.w3.org/1999/xlink" version="1.1" width="20" height="20" viewBox="0 0 20 20"><path d="M13.3,9.1l-1.4-2.6c0.3-0.3,0.4-0.7,0.5-1.1c0-1-0.8-1.9-1.8-2c-1,0-2,0.8-2,1.8c0,1,0.8,1.9,1.9,2h0.2l1.3,2.5
	C12.3,9.4,12.8,9.3,13.3,9.1z M7.7,6.6C7,5,7.7,3.2,9.2,2.5c1.6-0.7,3.4,0.1,4,1.7c0.4,0.9,0.3,1.9-0.1,2.7l1.2,0.7
	c0.7-1.2,0.8-2.7,0.2-4.1c-1-2.3-3.7-3.5-6-2.5c-2.3,1-3.4,3.7-2.4,6c0.2,0.6,0.7,1.2,1.1,1.6l-2.3,3.8c-0.4-0.1-0.8,0-1.2,0.2
	c-0.9,0.5-1.3,1.6-0.8,2.6c0.5,0.9,1.7,1.3,2.6,0.8c0.9-0.5,1.3-1.6,0.8-2.5c0-0.1-0.1-0.1-0.1-0.2l3.1-5L9,8.1
	C8.4,7.8,7.9,7.3,7.7,6.6z M9.1,13.6l-1.3,0v1c-0.1,0.5-0.2,1-0.6,1.4c-1,1.4-2.9,1.8-4.3,0.8c-1.4-1-1.7-2.9-0.7-4.3
	c0.6-0.8,1.4-1.3,2.4-1.4l0-1.4c-1.4,0.1-2.7,0.7-3.6,2c-1.4,2.1-1,5,1.1,6.4C4.2,19.6,7,19.1,8.5,17c0.3-0.5,0.5-1,0.6-1.5
	C9,15.2,9,14.9,9,14.5C9,14.2,9,13.9,9.1,13.6z M14,13.5v-2l-3,3l3,3v-2h4v-2H14z"/></svg>