<?xml version="1.0" encoding="UTF-8"?><!DOCTYPE svg PUBLIC "-//W3C//DTD SVG 1.1//EN" "http://www.w3.org/Graphics/SVG/1.1/DTD/svg11.dtd"><svg xmlns="http://www.w3.org/2000/svg" xmlns:xlink="http://www.w3.org/1999/xlink" version="1.1" width="20" height="20" viewBox="0 0 20 20"><path d="M8.5,17c-1.5,2.1-4.3,2.6-6.4,1.1C0,16.7-0.4,13.8,1,11.8c0.9-1.2,2.2-1.9,3.6-2l0.1,1.4c-0.9,0.1-1.8,0.5-2.4,1.4
	c-1,1.4-0.7,3.4,0.7,4.3c1.4,1,3.3,0.6,4.3-0.8c0.3-0.4,0.5-0.9,0.6-1.4v-1l5.6,0l0.1-0.1c0.5-0.9,1.7-1.2,2.6-0.7
	c0.9,0.5,1.2,1.7,0.7,2.6c-0.5,0.9-1.7,1.2-2.6,0.7c-0.4-0.2-0.7-0.6-0.8-1l-4.1,0C9.1,15.7,8.9,16.4,8.5,17 M15.7,9.9
	c2.5,0.3,4.3,2.6,4,5.1c-0.3,2.5-2.6,4.3-5.1,4c-1.5-0.2-2.7-1-3.4-2.2l1.2-0.7c0.5,0.8,1.3,1.3,2.3,1.5c1.8,0.2,3.3-1,3.5-2.6
	c0.2-1.7-1-3.2-2.8-3.4c-0.5-0.1-1.1,0-1.5,0.2L13.1,12l-2.6-4.8h-0.2c-1.1,0-1.9-0.9-1.8-1.9c0-1,0.9-1.8,2-1.8
	c1.1,0.1,1.9,0.9,1.9,1.9c0,0.4-0.2,0.8-0.5,1.2l1.9,3.5C14.4,9.9,15,9.8,15.7,9.9 M6.2,7.1c-1-2.4,0.1-5,2.4-6c2.3-1,5,0.1,6,2.5
	c0.6,1.4,0.5,2.9-0.2,4.1l-1.2-0.7c0.4-0.8,0.5-1.8,0.1-2.7c-0.7-1.6-2.5-2.4-4-1.7C7.7,3.2,7,5,7.6,6.6C7.9,7.3,8.4,7.8,9,8.1
	l0.4,0.2l-3.1,5c0,0,0.1,0.1,0.1,0.2c0.5,0.9,0.1,2.1-0.8,2.5c-0.9,0.5-2.1,0.1-2.6-0.8c-0.5-0.9-0.2-2.1,0.8-2.6
	c0.4-0.2,0.8-0.3,1.2-0.2l2.3-3.8C6.9,8.3,6.5,7.8,6.2,7.1z"/></svg>